HIERARCHY
ROOT Hips
{
	OFFSET 0.000000 121.760803 0.000000
	CHANNELS 6 Xposition Yposition Zposition Xrotation Yrotation Zrotation 
	JOINT Spine
	{
		OFFSET 0.072000 7.257294 -0.789700
		CHANNELS 3 Xrotation Yrotation Zrotation
		JOINT Spine1
		{
			OFFSET 0.000000 12.508769 -0.658067
			CHANNELS 3 Xrotation Yrotation Zrotation
			JOINT Spine1_split
			{
				OFFSET 0.000000 12.508769 -0.658067
				CHANNELS 3 Xrotation Yrotation Zrotation
				JOINT Spine2
				{
					OFFSET 0.000000 12.508769 -0.658067
					CHANNELS 3 Xrotation Yrotation Zrotation
					JOINT Neck
					{
						OFFSET 0.000000 14.033295 7.520400
						CHANNELS 3 Xrotation Yrotation Zrotation
						JOINT Head
						{
							OFFSET 0.000000 8.198502 5.703100
							CHANNELS 3 Xrotation Yrotation Zrotation
							JOINT HeadTop_End
							{
								OFFSET 0.000000 17.760803 13.332701
								CHANNELS 3 Xrotation Yrotation Zrotation
								End Site
								{
									OFFSET 0.000000 0.000000 0.000000
								}
							}
						}
					}
					JOINT LeftShoulder
					{
						OFFSET 6.292450 5.785301 -0.669000
						CHANNELS 3 Xrotation Yrotation Zrotation
						JOINT LeftShoulder_split
						{
							OFFSET 6.292450 5.785301 -0.669000
							CHANNELS 3 Xrotation Yrotation Zrotation
							JOINT LeftArm
							{
								OFFSET 13.907140 -6.093903 1.965100
								CHANNELS 3 Xrotation Yrotation Zrotation
								JOINT LeftForeArm
								{
									OFFSET 34.140198 0.000000 0.000000
									CHANNELS 3 Xrotation Yrotation Zrotation
									JOINT LeftHand
									{
										OFFSET 40.960209 0.000000 0.000000
										CHANNELS 3 Xrotation Yrotation Zrotation
										JOINT LeftHandThumb1
										{
											OFFSET 10.006996 -7.170425 9.573125
											CHANNELS 3 Xrotation Yrotation Zrotation
											JOINT LeftHandThumb2
											{
												OFFSET 1.835007 -1.059448 1.059443
												CHANNELS 3 Xrotation Yrotation Zrotation
												JOINT LeftHandThumb3
												{
													OFFSET 2.112267 -1.219513 1.219518
													CHANNELS 3 Xrotation Yrotation Zrotation
													JOINT LeftHandThumb4
													{
														OFFSET 4.843811 -2.796570 2.796576
														CHANNELS 3 Xrotation Yrotation Zrotation
														End Site
														{
															OFFSET 0.000000 0.000000 0.000000
														}
													}
												}
											}
										}
										JOINT LeftHandIndex1
										{
											OFFSET 18.389847 -0.922348 4.596882
											CHANNELS 3 Xrotation Yrotation Zrotation
											JOINT LeftHandIndex2
											{
												OFFSET 4.711273 0.000000 0.000000
												CHANNELS 3 Xrotation Yrotation Zrotation
												JOINT LeftHandIndex3
												{
													OFFSET 2.886131 0.000000 0.000000
													CHANNELS 3 Xrotation Yrotation Zrotation
													JOINT LeftHandIndex4
													{
														OFFSET 6.145912 0.000000 0.000000
														CHANNELS 3 Xrotation Yrotation Zrotation
														End Site
														{
															OFFSET 0.000000 0.000000 0.000000
														}
													}
												}
											}
										}
										JOINT LeftHandMiddle1
										{
											OFFSET 18.013008 0.000000 0.000000
											CHANNELS 3 Xrotation Yrotation Zrotation
											JOINT LeftHandMiddle2
											{
												OFFSET 4.946693 0.000000 0.000000
												CHANNELS 3 Xrotation Yrotation Zrotation
												JOINT LeftHandMiddle3
												{
													OFFSET 3.342232 0.000000 0.000000
													CHANNELS 3 Xrotation Yrotation Zrotation
													JOINT LeftHandMiddle4
													{
														OFFSET 4.461754 0.000000 0.000000
														CHANNELS 3 Xrotation Yrotation Zrotation
														End Site
														{
															OFFSET 0.000000 0.000000 0.000000
														}
													}
												}
											}
										}
										JOINT LeftHandRing1
										{
											OFFSET 15.849892 -0.102921 -4.126150
											CHANNELS 3 Xrotation Yrotation Zrotation
											JOINT LeftHandRing2
											{
												OFFSET 3.527054 0.000000 0.000000
												CHANNELS 3 Xrotation Yrotation Zrotation
												JOINT LeftHandRing3
												{
													OFFSET 2.961098 0.000000 0.000000
													CHANNELS 3 Xrotation Yrotation Zrotation
													JOINT LeftHandRing4
													{
														OFFSET 4.927200 0.000000 0.000000
														CHANNELS 3 Xrotation Yrotation Zrotation
														End Site
														{
															OFFSET 0.000000 0.000000 0.000000
														}
													}
												}
											}
										}
										JOINT LeftHandPinky1
										{
											OFFSET 12.791824 -0.832031 -6.799156
											CHANNELS 3 Xrotation Yrotation Zrotation
											JOINT LeftHandPinky2
											{
												OFFSET 3.327133 0.000000 0.000000
												CHANNELS 3 Xrotation Yrotation Zrotation
												JOINT LeftHandPinky3
												{
													OFFSET 3.014900 0.000000 0.000000
													CHANNELS 3 Xrotation Yrotation Zrotation
													JOINT LeftHandPinky4
													{
														OFFSET 5.847786 0.000000 0.000000
														CHANNELS 3 Xrotation Yrotation Zrotation
														End Site
														{
															OFFSET 0.000000 0.000000 0.000000
														}
													}
												}
											}
										}
									}
								}
							}
						}
					}
					JOINT RightShoulder
					{
						OFFSET -6.292450 5.785301 -0.669000
						CHANNELS 3 Xrotation Yrotation Zrotation
						JOINT RightShoulder_split
						{
							OFFSET -6.292450 5.785301 -0.669000
							CHANNELS 3 Xrotation Yrotation Zrotation
							JOINT RightArm
							{
								OFFSET -13.907140 -6.093903 1.965100
								CHANNELS 3 Xrotation Yrotation Zrotation
								JOINT RightForeArm
								{
									OFFSET -34.140198 0.000000 0.000000
									CHANNELS 3 Xrotation Yrotation Zrotation
									JOINT RightHand
									{
										OFFSET -40.960209 0.000000 0.000000
										CHANNELS 3 Xrotation Yrotation Zrotation
										JOINT RightHandThumb1
										{
											OFFSET -10.007050 -7.170456 9.573117
											CHANNELS 3 Xrotation Yrotation Zrotation
											JOINT RightHandThumb2
											{
												OFFSET -1.835007 -1.059448 1.059443
												CHANNELS 3 Xrotation Yrotation Zrotation
												JOINT RightHandThumb3
												{
													OFFSET -2.112267 -1.219513 1.219518
													CHANNELS 3 Xrotation Yrotation Zrotation
													JOINT RightHandThumb4
													{
														OFFSET -4.843834 -2.796585 2.796590
														CHANNELS 3 Xrotation Yrotation Zrotation
														End Site
														{
															OFFSET 0.000000 0.000000 0.000000
														}
													}
												}
											}
										}
										JOINT RightHandIndex1
										{
											OFFSET -18.389870 -0.922424 4.596786
											CHANNELS 3 Xrotation Yrotation Zrotation
											JOINT RightHandIndex2
											{
												OFFSET -4.711273 0.000000 0.000000
												CHANNELS 3 Xrotation Yrotation Zrotation
												JOINT RightHandIndex3
												{
													OFFSET -2.886131 0.000000 0.000000
													CHANNELS 3 Xrotation Yrotation Zrotation
													JOINT RightHandIndex4
													{
														OFFSET -6.145920 0.000000 0.000000
														CHANNELS 3 Xrotation Yrotation Zrotation
														End Site
														{
															OFFSET 0.000000 0.000000 0.000000
														}
													}
												}
											}
										}
										JOINT RightHandMiddle1
										{
											OFFSET -18.013008 0.000000 0.000000
											CHANNELS 3 Xrotation Yrotation Zrotation
											JOINT RightHandMiddle2
											{
												OFFSET -4.946693 0.000000 0.000000
												CHANNELS 3 Xrotation Yrotation Zrotation
												JOINT RightHandMiddle3
												{
													OFFSET -3.342232 0.000000 0.000000
													CHANNELS 3 Xrotation Yrotation Zrotation
													JOINT RightHandMiddle4
													{
														OFFSET -4.461754 0.000000 0.000000
														CHANNELS 3 Xrotation Yrotation Zrotation
														End Site
														{
															OFFSET 0.000000 0.000000 0.000000
														}
													}
												}
											}
										}
										JOINT RightHandRing1
										{
											OFFSET -15.849876 -0.102936 -4.126237
											CHANNELS 3 Xrotation Yrotation Zrotation
											JOINT RightHandRing2
											{
												OFFSET -3.527054 0.000000 0.000000
												CHANNELS 3 Xrotation Yrotation Zrotation
												JOINT RightHandRing3
												{
													OFFSET -2.961098 0.000000 0.000000
													CHANNELS 3 Xrotation Yrotation Zrotation
													JOINT RightHandRing4
													{
														OFFSET -4.927200 0.000000 0.000000
														CHANNELS 3 Xrotation Yrotation Zrotation
														End Site
														{
															OFFSET 0.000000 0.000000 0.000000
														}
													}
												}
											}
										}
										JOINT RightHandPinky1
										{
											OFFSET -12.791786 -0.832077 -6.799222
											CHANNELS 3 Xrotation Yrotation Zrotation
											JOINT RightHandPinky2
											{
												OFFSET -3.327133 0.000000 0.000000
												CHANNELS 3 Xrotation Yrotation Zrotation
												JOINT RightHandPinky3
												{
													OFFSET -3.014900 0.000000 0.000000
													CHANNELS 3 Xrotation Yrotation Zrotation
													JOINT RightHandPinky4
													{
														OFFSET -5.847786 0.000000 0.000000
														CHANNELS 3 Xrotation Yrotation Zrotation
														End Site
														{
															OFFSET 0.000000 0.000000 0.000000
														}
													}
												}
											}
										}
									}
								}
							}
						}
					}
				}
			}
		}
	}
	JOINT LeftUpLeg
	{
		OFFSET 13.026900 -6.336304 -1.092800
		CHANNELS 3 Xrotation Yrotation Zrotation
		JOINT LeftLeg
		{
			OFFSET 0.524474 -46.096886 9.782700
			CHANNELS 3 Xrotation Yrotation Zrotation
			JOINT LeftFoot
			{
				OFFSET -0.524474 -53.427422 -12.948200
				CHANNELS 3 Xrotation Yrotation Zrotation
				JOINT LeftToeBase
				{
					OFFSET 0.192200 -14.009700 16.364100
					CHANNELS 3 Xrotation Yrotation Zrotation
					JOINT LeftToe_End
					{
						OFFSET -1.784700 -0.561700 9.474800
						CHANNELS 3 Xrotation Yrotation Zrotation
						End Site
						{
							OFFSET 0.000000 0.000000 0.000000
						}
					}
				}
			}
		}
	}
	JOINT RightUpLeg
	{
		OFFSET -12.883000 -6.336304 -1.092800
		CHANNELS 3 Xrotation Yrotation Zrotation
		JOINT RightLeg
		{
			OFFSET -0.524587 -46.096825 9.782800
			CHANNELS 3 Xrotation Yrotation Zrotation
			JOINT RightFoot
			{
				OFFSET 0.524587 -53.427383 -12.948300
				CHANNELS 3 Xrotation Yrotation Zrotation
				JOINT RightToeBase
				{
					OFFSET -0.192200 -14.009700 16.364100
					CHANNELS 3 Xrotation Yrotation Zrotation
					JOINT RightToe_End
					{
						OFFSET 1.784700 -0.561700 9.474800
						CHANNELS 3 Xrotation Yrotation Zrotation
						End Site
						{
							OFFSET 0.000000 0.000000 0.000000
						}
					}
				}
			}
		}
	}
}
MOTION
Frames: 4
Frame Time: 0.016667
-1.111172 101.147926 0.434596 3.032231 -58.328470 6.707831 11.191927 0.157654 -2.923533 8.434595 0.027702 -5.592320 0.000000 0.000000 0.000000 8.457034 0.027837 -5.591847 -21.556842 25.063181 12.062625 -0.293121 25.465694 -3.208470 0.000000 0.000000 0.000001 -6.221666 -11.503859 -4.023827 0.000000 0.000000 0.000000 -23.062127 9.568616 -36.639628 0.046117 -43.169282 -0.011184 22.743703 -5.685810 15.979257 -1.064233 -7.954941 8.490099 2.373415 19.986083 -2.038317 0.808199 1.237748 2.631746 -0.000001 -0.000001 0.000003 13.340892 -1.006670 10.682313 -0.167592 0.303400 -31.105668 -0.143380 0.303627 -32.256231 0.000001 -0.000001 -0.000001 8.495452 -0.329545 -0.915266 0.231495 0.661248 -29.901878 0.444132 0.213429 -44.357007 -0.000000 0.000000 -0.000000 6.111751 3.150918 -16.210925 0.047083 0.322414 -30.125454 0.408806 0.818933 -42.140628 0.000001 0.000001 0.000003 -5.636028 7.709866 -13.878564 0.224350 0.276591 -46.588351 0.261242 0.249390 -46.286860 0.000001 -0.000000 -0.000001 -5.488244 10.658287 2.466535 0.000000 0.000000 0.000000 -41.473817 -26.755550 30.078968 24.955430 111.863144 -23.308413 -8.702472 12.422926 -9.802063 0.264994 10.061067 -10.888474 1.383783 -17.412857 3.016285 3.342322 -13.253720 -8.262779 -0.000001 0.000002 -0.000000 19.443575 11.174431 -13.340188 -0.118663 -0.322721 18.035576 -0.089903 -0.286606 23.256608 -0.000001 -0.000002 0.000001 4.320449 2.436971 -4.811725 0.349110 -0.461233 26.890332 0.467488 0.154041 39.044845 0.000000 0.000004 0.000001 -7.005649 -10.695114 5.719857 0.111853 -0.089218 26.155894 0.451268 -0.473487 33.265070 0.000001 -0.000002 0.000000 -19.433562 -20.238199 5.987869 0.223786 -0.085758 36.844588 0.260783 -0.047520 36.471687 -0.000003 0.000001 -0.000002 -36.057873 9.366003 25.451984 41.734915 -7.556118 -9.726639 -7.259501 -2.461283 -9.583983 -0.327598 1.238429 0.837235 -0.000000 0.000001 -0.000000 -33.213338 -7.748186 -26.040074 46.181050 2.592651 -7.371338 -16.830476 3.005766 21.139130 -0.322734 -0.997381 -0.837175 0.000000 0.000001 -0.000000 
-1.279413 101.038551 0.524867 1.363409 -58.606158 5.038442 10.938171 -0.020259 -2.680655 7.815274 -0.326025 -5.179800 0.000000 0.000000 0.000000 7.841704 -0.289951 -5.218253 -16.952224 25.003612 11.382622 1.554969 25.240414 -5.687662 0.000000 -0.000001 0.000000 -6.685500 -11.300288 -5.194096 0.000000 0.000000 0.000000 -20.846116 10.084662 -34.890870 4.501475 -44.384553 0.854217 12.301411 -3.504524 18.746813 -0.817772 -7.008215 8.688585 2.795484 20.865746 -1.954408 1.151893 2.142742 2.837601 0.000004 -0.000000 -0.000001 13.346475 -1.013388 8.858991 -0.165544 0.304579 -32.928977 -0.136666 0.301818 -34.079673 -0.000001 0.000000 -0.000001 8.466204 -0.311484 -2.738561 0.241816 0.667301 -31.725276 0.455382 0.216963 -46.180395 -0.000000 -0.000000 0.000001 6.092968 3.171981 -18.033081 0.048045 0.334595 -31.948825 0.427225 0.817659 -43.964224 -0.000000 0.000001 -0.000001 -5.643674 7.720615 -15.700930 0.231607 0.282309 -48.411746 0.269879 0.253510 -48.110234 -0.000000 0.000000 0.000001 -5.634363 10.125346 2.634041 0.000000 0.000000 0.000000 -41.005608 -24.756287 29.332179 24.443644 110.510330 -22.235715 -0.953739 8.719435 -11.067481 0.356406 9.641547 -10.977429 1.570914 -17.798307 2.977750 3.459289 -13.663747 -8.327545 0.000000 0.000001 0.000000 19.447920 11.177529 -10.409369 -0.115828 -0.325269 20.967282 -0.078787 -0.285415 26.188294 -0.000001 -0.000001 0.000001 4.273844 2.408384 -1.878597 0.365322 -0.471725 29.822098 0.485051 0.146971 41.976423 -0.000004 -0.000001 -0.000002 -7.029087 -10.720206 8.646956 0.112291 -0.108826 29.087488 0.480877 -0.475736 36.196823 -0.000001 0.000000 -0.000002 -19.442347 -20.249260 8.916435 0.233737 -0.096696 39.776262 0.273441 -0.056382 39.403348 -0.000001 -0.000000 0.000001 -35.237919 9.347656 25.940980 42.093465 -7.751829 -9.808380 -7.613790 -2.422766 -9.597435 -0.327621 1.238513 0.837260 0.000000 -0.000004 -0.000000 -32.416447 -8.133129 -25.945356 46.379419 3.062093 -7.361881 -17.056908 3.003709 20.944321 -0.322742 -0.997284 -0.837163 0.000000 0.000001 0.000000 
-1.543712 100.879852 0.847441 -0.221077 -58.985377 3.409653 10.329480 -0.418045 -2.078675 6.356271 -1.115957 -4.166065 0.000000 0.000000 0.000000 6.388319 -1.004135 -4.289069 -6.596742 24.682763 10.020964 5.771845 24.455042 -11.198034 0.000001 -0.000000 0.000001 -7.444595 -11.224871 -7.938091 0.000000 0.000000 0.000000 -17.825467 12.833963 -32.921177 9.087196 -48.058335 1.764685 2.793995 0.641295 21.567473 -0.555606 -5.986849 8.898263 3.257409 21.811552 -1.869792 1.519046 3.119692 3.054335 -0.000000 0.000000 0.000002 13.352260 -1.020819 6.893191 -0.163308 0.305701 -34.894958 -0.129487 0.299766 -36.045640 0.000001 0.000001 0.000000 8.435342 -0.291037 -4.704290 0.253177 0.673446 -33.691339 0.467631 0.220299 -48.146335 0.000001 -0.000002 -0.000001 6.073473 3.195275 -19.997739 0.049529 0.347699 -33.914710 0.447047 0.815604 -45.930328 -0.000001 0.000001 0.000000 -5.651526 7.732443 -17.665775 0.239519 0.288169 -50.377720 0.279352 0.257778 -50.076181 0.000003 0.000001 -0.000003 -5.983463 8.827065 3.075383 0.000000 0.000000 0.000000 -38.745880 -19.254834 28.392009 20.208713 109.867506 -16.299946 7.140788 4.709851 -11.433877 0.455358 9.184286 -11.073786 1.772482 -18.218561 2.932615 3.586242 -14.110715 -8.397648 -0.000000 -0.000000 0.000002 19.452497 11.181121 -7.215373 -0.112654 -0.327777 24.162122 -0.066821 -0.283478 29.383184 -0.000000 0.000001 0.000000 4.224819 2.374533 1.317749 0.383448 -0.482127 33.017056 0.504646 0.140228 45.171111 0.000002 0.000000 0.000000 -7.053125 -10.748752 11.837130 0.113810 -0.130186 32.282261 0.513219 -0.476446 39.391767 -0.000000 0.000004 -0.000002 -19.451202 -20.261795 12.108216 0.245128 -0.108078 42.971080 0.287707 -0.065336 42.598162 0.000000 -0.000001 0.000002 -34.383422 9.314603 26.458372 42.676743 -7.874751 -9.920128 -8.247339 -2.368943 -9.599384 -0.327564 1.238414 0.837249 -0.000000 -0.000000 -0.000000 -31.599491 -8.497945 -25.919494 46.561345 3.682612 -7.337770 -17.353202 2.979071 20.802069 -0.322740 -0.997385 -0.837153 0.000000 -0.000001 0.000000 
-2.146777 100.762993 1.474004 -1.823228 -58.935114 1.829610 9.556150 -0.861994 -1.285740 4.553882 -2.005581 -2.831332 0.000000 0.000000 0.000000 4.585547 -1.818074 -3.044921 5.236358 23.944280 8.810544 10.649099 23.072821 -17.338748 0.000001 -0.000000 0.000000 -8.310468 -11.099489 -11.307729 0.000000 0.000000 0.000000 -14.786352 15.433483 -31.237177 14.384684 -52.081395 3.335640 -5.543241 5.381425 24.045261 -0.295238 -4.957897 9.104968 3.727188 22.762613 -1.791832 1.885243 4.104454 3.267194 0.000001 0.000001 0.000000 13.357826 -1.028544 4.914088 -0.161032 0.306752 -36.874142 -0.122340 0.297419 -38.024828 0.000000 -0.000001 0.000000 8.404994 -0.269329 -6.683305 0.264753 0.679260 -35.670639 0.480106 0.223270 -50.125532 0.000000 0.000002 0.000001 6.054688 3.219375 -21.975638 0.051442 0.360812 -35.893853 0.466912 0.812869 -47.909699 0.000003 0.000002 0.000001 -5.658975 7.744605 -19.643914 0.247709 0.293879 -52.356931 0.288981 0.261663 -52.055382 -0.000000 0.000002 -0.000002 -6.427620 7.045161 3.807187 0.000000 0.000000 0.000000 -35.653813 -12.738082 26.064688 13.821684 110.918461 -7.469549 13.357304 1.174506 -10.753080 0.549462 8.746525 -11.165461 1.973940 -18.616014 2.888141 3.707285 -14.538669 -8.464237 -0.000002 -0.000002 0.000002 19.456643 11.184793 -4.158322 -0.109483 -0.330050 27.220015 -0.055405 -0.281035 32.441107 -0.000002 -0.000000 -0.000001 4.179710 2.339666 4.376952 0.401393 -0.491182 36.074996 0.523673 0.134869 48.228854 0.000001 0.000000 0.000000 -7.074590 -10.777304 14.890796 0.116405 -0.150523 35.340031 0.544134 -0.475451 42.449783 0.000002 0.000001 -0.000001 -19.459006 -20.274177 15.163324 0.256669 -0.118280 46.028945 0.301842 -0.073071 45.655942 -0.000002 0.000004 -0.000003 -33.380354 9.385015 26.796080 43.188932 -8.359603 -10.058913 -9.082380 -2.322741 -9.438618 -0.327618 1.238417 0.837256 0.000000 -0.000003 -0.000000 -30.257233 -9.002112 -26.115092 46.547439 4.039053 -7.313737 -17.936039 2.842998 20.936125 -0.322711 -0.997365 -0.837197 0.000000 -0.000001 0.000000 
